<svg width="20" height="14" viewBox="0 0 20 14" fill="none" xmlns="http://www.w3.org/2000/svg">
<g id="vuesax/outline/arrow-right">
<g id="Vector">
<path d="M12.43 13.82C12.24 13.82 12.05 13.75 11.9 13.6C11.61 13.31 11.61 12.83 11.9 12.54L17.44 7L11.9 1.46C11.61 1.17 11.61 0.689995 11.9 0.399995C12.19 0.109995 12.67 0.109995 12.96 0.399995L19.03 6.47C19.32 6.76 19.32 7.24 19.03 7.52999L12.96 13.6C12.81 13.75 12.62 13.82 12.43 13.82Z" fill="#514EF3"/>
<path d="M18.33 7.75H1.5C1.09 7.75 0.75 7.41 0.75 7C0.75 6.59 1.09 6.25 1.5 6.25H18.33C18.74 6.25 19.08 6.59 19.08 7C19.08 7.41 18.74 7.75 18.33 7.75Z" fill="#514EF3"/>
</g>
</g>
</svg>
