<svg width="32" height="32" viewBox="0 0 32 32" fill="none" xmlns="http://www.w3.org/2000/svg">
<g id="vuesax/bold/briefcase">
<g id="Vector">
<path d="M28.12 9.30665C26.9867 8.05332 25.0933 7.42665 22.3467 7.42665H22.0267V7.37332C22.0267 5.13332 22.0267 2.35999 17.0133 2.35999H14.9867C9.97334 2.35999 9.97334 5.14665 9.97334 7.37332V7.43999H9.65334C6.89334 7.43999 5.01334 8.06665 3.88001 9.31999C2.56001 10.7867 2.60001 12.76 2.73334 14.1067L2.74668 14.2L2.84995 15.2844C2.86897 15.4841 2.97652 15.6644 3.14438 15.7743C3.46412 15.9835 3.99924 16.3284 4.32001 16.5067C4.50668 16.6267 4.70668 16.7333 4.90668 16.84C7.18668 18.0933 9.69334 18.9333 12.24 19.3467C12.36 20.6 12.9067 22.0667 15.8267 22.0667C18.7467 22.0667 19.32 20.6133 19.4133 19.32C22.1333 18.88 24.76 17.9333 27.1333 16.5467C27.2133 16.5067 27.2667 16.4667 27.3333 16.4267C27.8623 16.1277 28.4111 15.7593 28.9113 15.3984C29.062 15.2897 29.1583 15.1217 29.1789 14.937L29.2 14.7467L29.2667 14.12C29.28 14.04 29.28 13.9733 29.2933 13.88C29.4 12.5333 29.3733 10.6933 28.12 9.30665ZM17.4533 18.44C17.4533 19.8533 17.4533 20.0667 15.8133 20.0667C14.1733 20.0667 14.1733 19.8133 14.1733 18.4533V16.7733H17.4533V18.44ZM11.88 7.37332C11.88 5.10665 11.88 4.26665 14.9867 4.26665H17.0133C20.12 4.26665 20.12 5.11999 20.12 7.37332V7.43999H11.88V7.37332Z" fill="#FE8084"/>
<path d="M27.8313 18.3122C28.3028 18.0879 28.8458 18.4616 28.7986 18.9816L28.32 24.2533C28.04 26.92 26.9467 29.64 21.08 29.64H10.92C5.05334 29.64 3.96001 26.92 3.68001 24.2667L3.22573 19.2696C3.179 18.7556 3.70961 18.3823 4.17979 18.595C5.69902 19.2824 8.5032 20.5019 10.2354 20.9555C10.4545 21.0129 10.6317 21.1697 10.7276 21.3749C11.5369 23.1057 13.2922 24.0267 15.8267 24.0267C18.3362 24.0267 20.1136 23.0702 20.9255 21.3352C21.0216 21.1299 21.199 20.9731 21.4182 20.9154C23.2576 20.4314 26.2424 19.0683 27.8313 18.3122Z" fill="#FE8084"/>
</g>
</g>
</svg>
