<svg width="18" height="18" viewBox="0 0 18 18" fill="none" xmlns="http://www.w3.org/2000/svg">
<g id="vuesax/outline/calendar">
<g id="Vector">
<path d="M5.66667 3.79166C5.325 3.79166 5.04167 3.50832 5.04167 3.16666V0.666657C5.04167 0.32499 5.325 0.0416565 5.66667 0.0416565C6.00833 0.0416565 6.29167 0.32499 6.29167 0.666657V3.16666C6.29167 3.50832 6.00833 3.79166 5.66667 3.79166Z" fill="#7E92A2"/>
<path d="M12.3333 3.79166C11.9917 3.79166 11.7083 3.50832 11.7083 3.16666V0.666657C11.7083 0.32499 11.9917 0.0416565 12.3333 0.0416565C12.675 0.0416565 12.9583 0.32499 12.9583 0.666657V3.16666C12.9583 3.50832 12.675 3.79166 12.3333 3.79166Z" fill="#7E92A2"/>
<path d="M6.08333 11.0833C5.975 11.0833 5.86667 11.0583 5.76667 11.0167C5.65833 10.975 5.575 10.9167 5.49167 10.8417C5.34167 10.6833 5.25 10.475 5.25 10.25C5.25 10.1417 5.275 10.0333 5.31667 9.93333C5.35833 9.83333 5.41667 9.74167 5.49167 9.65834C5.575 9.58334 5.65833 9.52498 5.76667 9.48332C6.06667 9.35832 6.44167 9.425 6.675 9.65834C6.825 9.81667 6.91667 10.0333 6.91667 10.25C6.91667 10.3 6.90833 10.3583 6.9 10.4167C6.89167 10.4667 6.875 10.5167 6.85 10.5667C6.83333 10.6167 6.80833 10.6667 6.775 10.7167C6.75 10.7583 6.70833 10.8 6.675 10.8417C6.51667 10.9917 6.3 11.0833 6.08333 11.0833Z" fill="#7E92A2"/>
<path d="M9 11.0833C8.89167 11.0833 8.78333 11.0583 8.68333 11.0167C8.575 10.975 8.49167 10.9166 8.40833 10.8416C8.25833 10.6833 8.16667 10.475 8.16667 10.25C8.16667 10.1417 8.19167 10.0333 8.23333 9.93332C8.275 9.83332 8.33333 9.74166 8.40833 9.65833C8.49167 9.58333 8.575 9.52498 8.68333 9.48331C8.98333 9.34998 9.35833 9.42499 9.59167 9.65833C9.74167 9.81666 9.83333 10.0333 9.83333 10.25C9.83333 10.3 9.825 10.3583 9.81667 10.4167C9.80833 10.4667 9.79166 10.5167 9.76666 10.5667C9.75 10.6167 9.725 10.6667 9.69167 10.7167C9.66667 10.7583 9.625 10.8 9.59167 10.8416C9.43333 10.9916 9.21667 11.0833 9 11.0833Z" fill="#7E92A2"/>
<path d="M11.9167 11.0833C11.8083 11.0833 11.7 11.0583 11.6 11.0167C11.4917 10.975 11.4083 10.9166 11.325 10.8416C11.2917 10.8 11.2583 10.7583 11.225 10.7167C11.1917 10.6667 11.1667 10.6167 11.15 10.5667C11.125 10.5167 11.1083 10.4667 11.1 10.4167C11.0917 10.3583 11.0833 10.3 11.0833 10.25C11.0833 10.0333 11.175 9.81666 11.325 9.65833C11.4083 9.58333 11.4917 9.52498 11.6 9.48331C11.9083 9.34998 12.275 9.42499 12.5083 9.65833C12.6583 9.81666 12.75 10.0333 12.75 10.25C12.75 10.3 12.7417 10.3583 12.7333 10.4167C12.725 10.4667 12.7083 10.5167 12.6833 10.5667C12.6667 10.6167 12.6417 10.6667 12.6083 10.7167C12.5833 10.7583 12.5417 10.8 12.5083 10.8416C12.35 10.9916 12.1333 11.0833 11.9167 11.0833Z" fill="#7E92A2"/>
<path d="M6.08333 14C5.975 14 5.86667 13.975 5.76667 13.9333C5.66667 13.8917 5.575 13.8333 5.49167 13.7583C5.34167 13.6 5.25 13.3833 5.25 13.1667C5.25 13.0583 5.275 12.95 5.31667 12.85C5.35833 12.7417 5.41667 12.65 5.49167 12.575C5.8 12.2667 6.36667 12.2667 6.675 12.575C6.825 12.7333 6.91667 12.95 6.91667 13.1667C6.91667 13.3833 6.825 13.6 6.675 13.7583C6.51667 13.9083 6.3 14 6.08333 14Z" fill="#7E92A2"/>
<path d="M9 14C8.78333 14 8.56667 13.9083 8.40833 13.7583C8.25833 13.6 8.16667 13.3833 8.16667 13.1667C8.16667 13.0583 8.19167 12.95 8.23333 12.85C8.275 12.7417 8.33333 12.65 8.40833 12.575C8.71667 12.2667 9.28333 12.2667 9.59167 12.575C9.66667 12.65 9.725 12.7417 9.76666 12.85C9.80833 12.95 9.83333 13.0583 9.83333 13.1667C9.83333 13.3833 9.74167 13.6 9.59167 13.7583C9.43333 13.9083 9.21667 14 9 14Z" fill="#7E92A2"/>
<path d="M11.9167 14C11.7 14 11.4833 13.9083 11.325 13.7583C11.25 13.6833 11.1917 13.5917 11.15 13.4834C11.1083 13.3834 11.0833 13.275 11.0833 13.1667C11.0833 13.0584 11.1083 12.95 11.15 12.85C11.1917 12.7417 11.25 12.65 11.325 12.575C11.5167 12.3834 11.8083 12.2917 12.075 12.35C12.1333 12.3583 12.1833 12.375 12.2333 12.4C12.2833 12.4167 12.3333 12.4417 12.3833 12.475C12.425 12.5 12.4667 12.5417 12.5083 12.575C12.6583 12.7334 12.75 12.95 12.75 13.1667C12.75 13.3834 12.6583 13.6 12.5083 13.7583C12.35 13.9083 12.1333 14 11.9167 14Z" fill="#7E92A2"/>
<path d="M16.0833 7.19996H1.91667C1.575 7.19996 1.29167 6.91663 1.29167 6.57496C1.29167 6.23329 1.575 5.94996 1.91667 5.94996H16.0833C16.425 5.94996 16.7083 6.23329 16.7083 6.57496C16.7083 6.91663 16.425 7.19996 16.0833 7.19996Z" fill="#7E92A2"/>
<path d="M12.3333 17.9583H5.66667C2.625 17.9583 0.875 16.2083 0.875 13.1667V6.08332C0.875 3.04166 2.625 1.29166 5.66667 1.29166H12.3333C15.375 1.29166 17.125 3.04166 17.125 6.08332V13.1667C17.125 16.2083 15.375 17.9583 12.3333 17.9583ZM5.66667 2.54166C3.28333 2.54166 2.125 3.69999 2.125 6.08332V13.1667C2.125 15.55 3.28333 16.7083 5.66667 16.7083H12.3333C14.7167 16.7083 15.875 15.55 15.875 13.1667V6.08332C15.875 3.69999 14.7167 2.54166 12.3333 2.54166H5.66667Z" fill="#7E92A2"/>
</g>
</g>
</svg>
