<svg width="18" height="18" viewBox="0 0 18 18" fill="none" xmlns="http://www.w3.org/2000/svg">
<g id="vuesax/outline/profile-2user">
<g id="Vector">
<path d="M6.63301 8.68332C6.60801 8.68332 6.59134 8.68332 6.56634 8.68332C6.52468 8.67499 6.46634 8.67499 6.41634 8.68332C3.99967 8.60832 2.17467 6.70832 2.17467 4.36666C2.17467 1.98332 4.11634 0.0416565 6.49968 0.0416565C8.88301 0.0416565 10.8247 1.98332 10.8247 4.36666C10.8163 6.70832 8.98301 8.60832 6.65801 8.68332C6.64967 8.68332 6.64134 8.68332 6.63301 8.68332ZM6.49968 1.29166C4.80801 1.29166 3.42467 2.67499 3.42467 4.36666C3.42467 6.03332 4.72467 7.37499 6.38301 7.43332C6.43301 7.42499 6.54134 7.42499 6.64968 7.43332C8.28301 7.35832 9.56634 6.01666 9.57467 4.36666C9.57467 2.67499 8.19134 1.29166 6.49968 1.29166Z" fill="#7E92A2"/>
<path d="M12.783 8.79166C12.758 8.79166 12.733 8.79166 12.708 8.78332C12.3663 8.81666 12.0163 8.57499 11.983 8.23332C11.9497 7.89166 12.158 7.58332 12.4997 7.54166C12.5997 7.53332 12.708 7.53332 12.7997 7.53332C14.0163 7.46666 14.9663 6.46666 14.9663 5.24166C14.9663 3.97499 13.9413 2.94999 12.6747 2.94999C12.333 2.95832 12.0497 2.67499 12.0497 2.33332C12.0497 1.99166 12.333 1.70832 12.6747 1.70832C14.6247 1.70832 16.2163 3.29999 16.2163 5.24999C16.2163 7.16666 14.7163 8.71666 12.808 8.79166C12.7997 8.79166 12.7913 8.79166 12.783 8.79166Z" fill="#7E92A2"/>
<path d="M6.64134 17.7917C5.00801 17.7917 3.36634 17.375 2.12467 16.5417C0.966341 15.775 0.333008 14.725 0.333008 13.5833C0.333008 12.4417 0.966341 11.3833 2.12467 10.6083C4.62468 8.94999 8.67468 8.94999 11.158 10.6083C12.308 11.375 12.9497 12.425 12.9497 13.5667C12.9497 14.7083 12.3163 15.7667 11.158 16.5417C9.90801 17.375 8.27468 17.7917 6.64134 17.7917ZM2.81634 11.6583C2.01634 12.1917 1.58301 12.875 1.58301 13.5917C1.58301 14.3 2.02467 14.9833 2.81634 15.5083C4.89134 16.9 8.39134 16.9 10.4663 15.5083C11.2663 14.975 11.6997 14.2917 11.6997 13.575C11.6997 12.8667 11.258 12.1833 10.4663 11.6583C8.39134 10.275 4.89134 10.275 2.81634 11.6583Z" fill="#7E92A2"/>
<path d="M14.283 16.2917C13.9913 16.2917 13.733 16.0917 13.6747 15.7917C13.608 15.45 13.8247 15.125 14.158 15.05C14.683 14.9417 15.1663 14.7333 15.5413 14.4417C16.0163 14.0833 16.2747 13.6333 16.2747 13.1583C16.2747 12.6833 16.0163 12.2333 15.5497 11.8833C15.183 11.6 14.7247 11.4 14.183 11.275C13.8497 11.2 13.633 10.8667 13.708 10.525C13.783 10.1917 14.1163 9.97499 14.458 10.05C15.1747 10.2083 15.7997 10.4917 16.308 10.8833C17.083 11.4667 17.5247 12.2917 17.5247 13.1583C17.5247 14.025 17.0747 14.85 16.2997 15.4417C15.783 15.8417 15.133 16.1333 14.4163 16.275C14.3663 16.2917 14.3247 16.2917 14.283 16.2917Z" fill="#7E92A2"/>
</g>
</g>
</svg>
