<svg width="16" height="18" viewBox="0 0 16 18" fill="none" xmlns="http://www.w3.org/2000/svg">
<g id="vuesax/bold/element-4">
<g id="Vector">
<path d="M15.9167 8.08333V2.41666C15.9167 1.16666 15.3834 0.666664 14.0584 0.666664H10.6917C9.36671 0.666664 8.83337 1.16666 8.83337 2.41666V8.08333C8.83337 9.33333 9.36671 9.83333 10.6917 9.83333H14.0584C15.3834 9.83333 15.9167 9.33333 15.9167 8.08333Z" fill="white"/>
<path d="M7.16671 9.91667V15.5833C7.16671 16.8333 6.63337 17.3333 5.30837 17.3333H1.94171C0.616707 17.3333 0.083374 16.8333 0.083374 15.5833V9.91667C0.083374 8.66667 0.616707 8.16666 1.94171 8.16666H5.30837C6.63337 8.16666 7.16671 8.66667 7.16671 9.91667Z" fill="white"/>
<path d="M15.9167 15.5833V13.25C15.9167 12 15.3834 11.5 14.0584 11.5H10.6917C9.36671 11.5 8.83337 12 8.83337 13.25V15.5833C8.83337 16.8333 9.36671 17.3333 10.6917 17.3333H14.0584C15.3834 17.3333 15.9167 16.8333 15.9167 15.5833Z" fill="white"/>
<path d="M7.16671 4.75V2.41666C7.16671 1.16666 6.63337 0.666664 5.30837 0.666664H1.94171C0.616707 0.666664 0.083374 1.16666 0.083374 2.41666V4.75C0.083374 6 0.616707 6.5 1.94171 6.5H5.30837C6.63337 6.5 7.16671 6 7.16671 4.75Z" fill="white"/>
</g>
</g>
</svg>
