<svg width="18" height="18" viewBox="0 0 18 18" fill="none" xmlns="http://www.w3.org/2000/svg">
<g id="vuesax/outline/briefcase">
<g id="Vector">
<path d="M12.3333 17.9583H5.66665C1.81665 17.9583 1.09999 16.1667 0.916653 14.425L0.291653 7.75001C0.199986 6.87501 0.174986 5.58334 1.04165 4.61667C1.79165 3.78334 3.03332 3.38334 4.83332 3.38334H13.1667C14.975 3.38334 16.2167 3.79167 16.9583 4.61667C17.825 5.58334 17.8 6.87501 17.7083 7.75834L17.0833 14.4167C16.9 16.1667 16.1833 17.9583 12.3333 17.9583ZM4.83332 4.62501C3.42499 4.62501 2.45832 4.90001 1.96665 5.45001C1.55832 5.90001 1.42499 6.59167 1.53332 7.62501L2.15832 14.3C2.29999 15.6167 2.65832 16.7083 5.66665 16.7083H12.3333C15.3333 16.7083 15.7 15.6167 15.8417 14.2917L16.4667 7.63334C16.575 6.59167 16.4417 5.90001 16.0333 5.45001C15.5417 4.90001 14.575 4.62501 13.1667 4.62501H4.83332Z" fill="#7E92A2"/>
<path d="M12.3333 4.62501C11.9917 4.62501 11.7083 4.34167 11.7083 4.00001V3.33334C11.7083 1.85001 11.7083 1.29167 9.66665 1.29167H8.33332C6.29165 1.29167 6.29165 1.85001 6.29165 3.33334V4.00001C6.29165 4.34167 6.00832 4.62501 5.66665 4.62501C5.32499 4.62501 5.04165 4.34167 5.04165 4.00001V3.33334C5.04165 1.86667 5.04165 0.0416718 8.33332 0.0416718H9.66665C12.9583 0.0416718 12.9583 1.86667 12.9583 3.33334V4.00001C12.9583 4.34167 12.675 4.62501 12.3333 4.62501Z" fill="#7E92A2"/>
<path d="M8.99998 12.9583C6.70832 12.9583 6.70832 11.5417 6.70832 10.6917V9.83334C6.70832 8.65834 6.99165 8.37501 8.16665 8.37501H9.83332C11.0083 8.37501 11.2917 8.65834 11.2917 9.83334V10.6667C11.2917 11.5333 11.2917 12.9583 8.99998 12.9583ZM7.95832 9.62501C7.95832 9.69167 7.95832 9.76667 7.95832 9.83334V10.6917C7.95832 11.55 7.95832 11.7083 8.99998 11.7083C10.0417 11.7083 10.0417 11.575 10.0417 10.6833V9.83334C10.0417 9.76667 10.0417 9.69167 10.0417 9.62501C9.97498 9.62501 9.89998 9.62501 9.83332 9.62501H8.16665C8.09998 9.62501 8.02498 9.62501 7.95832 9.62501Z" fill="#7E92A2"/>
<path d="M10.6667 11.3083C10.3583 11.3083 10.0833 11.075 10.05 10.7583C10.0083 10.4167 10.25 10.1 10.5917 10.0583C12.7917 9.78334 14.9 8.95001 16.675 7.65834C16.95 7.45001 17.3417 7.51667 17.55 7.80001C17.75 8.07501 17.6917 8.46667 17.4083 8.67501C15.4583 10.0917 13.1583 11 10.7417 11.3083C10.7167 11.3083 10.6917 11.3083 10.6667 11.3083Z" fill="#7E92A2"/>
<path d="M7.33332 11.3167C7.30832 11.3167 7.28332 11.3167 7.25832 11.3167C4.97499 11.0583 2.74999 10.225 0.824986 8.90834C0.541653 8.71667 0.466653 8.32501 0.658319 8.04167C0.849986 7.75834 1.24165 7.68334 1.52499 7.87501C3.28332 9.07501 5.30832 9.83334 7.39165 10.075C7.73332 10.1167 7.98332 10.425 7.94165 10.7667C7.91665 11.0833 7.64999 11.3167 7.33332 11.3167Z" fill="#7E92A2"/>
</g>
</g>
</svg>
