<svg width="24" height="24" viewBox="0 0 24 24" fill="none" xmlns="http://www.w3.org/2000/svg">
<path d="M13.47 7.40988L15.93 6.19988C16.23 6.04988 16.31 5.65988 16.08 5.41988C15.19 4.43988 14.29 3.61988 13.57 2.99988C13.24 2.71988 12.75 2.94988 12.75 3.37988V6.95988C12.75 7.32988 13.14 7.56988 13.47 7.40988Z" fill="white"/>
<path d="M12.75 19.7399V21.3899C12.75 21.6899 13.02 21.9399 13.32 21.8899C16.05 21.4399 18.33 19.6099 19.41 17.1499C19.6 16.7299 19.14 16.3099 18.72 16.5099L13.03 19.2999C12.86 19.3799 12.75 19.5499 12.75 19.7399Z" fill="white"/>
<path d="M11.25 3.35988C11.25 2.92988 10.76 2.69988 10.43 2.96988C8.06997 4.94988 3.87997 9.11988 3.89997 13.8999C3.89997 17.9199 6.83997 21.2499 10.68 21.8899C10.98 21.9399 11.25 21.6899 11.25 21.3899V3.35988Z" fill="white"/>
<path d="M13.44 12.4699L18.73 10.2499C19 10.1299 19.13 9.81988 19 9.55988C18.63 8.82988 18.2 8.11988 17.73 7.45988C17.59 7.25988 17.33 7.19988 17.11 7.29988L13.02 9.28988C12.85 9.36988 12.74 9.54988 12.74 9.73988V12.0099C12.75 12.3599 13.11 12.6099 13.44 12.4699Z" fill="white"/>
<path d="M19.83 14.3099C19.99 14.2299 20.09 14.0799 20.09 13.9099C20.09 13.2699 20.01 12.6399 19.87 12.0199C19.8 11.7199 19.47 11.5599 19.19 11.6799L13.05 14.2999C12.87 14.3799 12.75 14.5599 12.75 14.7599V16.9599C12.75 17.3299 13.14 17.5699 13.47 17.4099L19.37 14.5399L19.83 14.3099Z" fill="white"/>
</svg>
