<svg width="16" height="19" viewBox="0 0 16 19" fill="none" xmlns="http://www.w3.org/2000/svg">
<g id="vuesax/outline/notification">
<g id="Vector">
<path d="M8.01672 17.1083C6.07505 17.1083 4.13339 16.8 2.29172 16.1833C1.59172 15.9417 1.05839 15.45 0.825054 14.8083C0.583387 14.1667 0.66672 13.4583 1.05005 12.825L2.00839 11.2333C2.20839 10.9 2.39172 10.2333 2.39172 9.84167V7.43334C2.39172 4.33334 4.91672 1.80834 8.01672 1.80834C11.1167 1.80834 13.6417 4.33334 13.6417 7.43334V9.84167C13.6417 10.225 13.8251 10.9 14.0251 11.2417L14.9751 12.825C15.3334 13.425 15.4001 14.15 15.1584 14.8083C14.9167 15.4667 14.3917 15.9667 13.7334 16.1833C11.9001 16.8 9.95839 17.1083 8.01672 17.1083ZM8.01672 3.05834C5.60839 3.05834 3.64172 5.01667 3.64172 7.43334V9.84167C3.64172 10.45 3.39172 11.35 3.08339 11.875L2.12505 13.4667C1.94172 13.775 1.89172 14.1 2.00005 14.375C2.10005 14.6583 2.35005 14.875 2.69172 14.9917C6.17505 16.1583 9.86672 16.1583 13.3501 14.9917C13.6501 14.8917 13.8834 14.6667 13.9917 14.3667C14.1001 14.0667 14.0751 13.7417 13.9084 13.4667L12.9501 11.875C12.6334 11.3333 12.3917 10.4417 12.3917 9.83334V7.43334C12.3917 5.01667 10.4334 3.05834 8.01672 3.05834Z" fill="#7E92A2"/>
<path d="M9.56672 3.28334C9.50839 3.28334 9.45005 3.275 9.39172 3.25834C9.15005 3.19167 8.91672 3.14167 8.69172 3.10834C7.98339 3.01667 7.30005 3.06667 6.65839 3.25834C6.42505 3.33334 6.17505 3.25834 6.01672 3.08334C5.85839 2.90834 5.80839 2.65834 5.90005 2.43334C6.24172 1.55834 7.07505 0.983337 8.02505 0.983337C8.97505 0.983337 9.80839 1.55 10.1501 2.43334C10.2334 2.65834 10.1917 2.90834 10.0334 3.08334C9.90839 3.21667 9.73339 3.28334 9.56672 3.28334Z" fill="#7E92A2"/>
<path d="M8.01672 19.0083C7.19172 19.0083 6.39172 18.675 5.80839 18.0917C5.22505 17.5083 4.89172 16.7083 4.89172 15.8833H6.14172C6.14172 16.375 6.34172 16.8583 6.69172 17.2083C7.04172 17.5583 7.52505 17.7583 8.01672 17.7583C9.05005 17.7583 9.89172 16.9167 9.89172 15.8833H11.1417C11.1417 17.6083 9.74172 19.0083 8.01672 19.0083Z" fill="#7E92A2"/>
</g>
</g>
</svg>
