<svg width="28" height="28" viewBox="0 0 28 28" fill="none" xmlns="http://www.w3.org/2000/svg">
<g id="vuesax/bold/profile-2user">
<g id="Vector">
<path d="M10 0.666687C6.50671 0.666687 3.66671 3.50669 3.66671 7.00002C3.66671 10.4267 6.34671 13.2 9.84004 13.32C9.94671 13.3067 10.0534 13.3067 10.1334 13.32C10.16 13.32 10.1734 13.32 10.2 13.32C10.2134 13.32 10.2134 13.32 10.2267 13.32C13.64 13.2 16.32 10.4267 16.3334 7.00002C16.3334 3.50669 13.4934 0.666687 10 0.666687Z" fill="#2DC8A8"/>
<path d="M16.7734 16.8667C13.0534 14.3867 6.98671 14.3867 3.24004 16.8667C1.54671 18 0.613373 19.5334 0.613373 21.1734C0.613373 22.8134 1.54671 24.3334 3.22671 25.4534C5.09337 26.7067 7.54671 27.3334 10 27.3334C12.4534 27.3334 14.9067 26.7067 16.7734 25.4534C18.4534 24.32 19.3867 22.8 19.3867 21.1467C19.3734 19.5067 18.4534 17.9867 16.7734 16.8667Z" fill="#2DC8A8"/>
<path d="M24.6534 7.78669C24.8667 10.3734 23.0267 12.64 20.48 12.9467C20.4667 12.9467 20.4667 12.9467 20.4534 12.9467H20.4134C20.3334 12.9467 20.2534 12.9467 20.1867 12.9734C18.8934 13.04 17.7067 12.6267 16.8134 11.8667C18.1867 10.64 18.9734 8.80002 18.8134 6.80002C18.72 5.72002 18.3467 4.73335 17.7867 3.89335C18.2934 3.64002 18.88 3.48002 19.48 3.42669C22.0934 3.20002 24.4267 5.14669 24.6534 7.78669Z" fill="#2DC8A8"/>
<path d="M27.32 20.12C27.2134 21.4134 26.3867 22.5334 25 23.2934C23.6667 24.0267 21.9867 24.3734 20.32 24.3334C21.28 23.4667 21.84 22.3867 21.9467 21.24C22.08 19.5867 21.2934 18 19.72 16.7334C18.8267 16.0267 17.7867 15.4667 16.6534 15.0534C19.6 14.2 23.3067 14.7734 25.5867 16.6134C26.8134 17.6 27.44 18.84 27.32 20.12Z" fill="#2DC8A8"/>
</g>
</g>
</svg>
