<svg width="18" height="18" viewBox="0 0 18 18" fill="none" xmlns="http://www.w3.org/2000/svg">
<g id="vuesax/outline/search-normal">
<g id="Vector">
<path d="M8.58342 17.125C3.87508 17.125 0.041748 13.2917 0.041748 8.58333C0.041748 3.875 3.87508 0.0416679 8.58342 0.0416679C13.2917 0.0416679 17.1251 3.875 17.1251 8.58333C17.1251 13.2917 13.2917 17.125 8.58342 17.125ZM8.58342 1.29167C4.55841 1.29167 1.29175 4.56667 1.29175 8.58333C1.29175 12.6 4.55841 15.875 8.58342 15.875C12.6084 15.875 15.8751 12.6 15.8751 8.58333C15.8751 4.56667 12.6084 1.29167 8.58342 1.29167Z" fill="#7E92A2"/>
<path d="M17.3334 17.9583C17.1751 17.9583 17.0167 17.9 16.8917 17.775L15.2251 16.1083C14.9834 15.8667 14.9834 15.4667 15.2251 15.225C15.4667 14.9833 15.8667 14.9833 16.1084 15.225L17.7751 16.8917C18.0168 17.1333 18.0168 17.5333 17.7751 17.775C17.6501 17.9 17.4917 17.9583 17.3334 17.9583Z" fill="#7E92A2"/>
</g>
</g>
</svg>
