<svg width="18" height="18" viewBox="0 0 18 18" fill="none" xmlns="http://www.w3.org/2000/svg">
<g id="vuesax/outline/setting-2">
<g id="Vector">
<path d="M8.99996 12.125C7.27496 12.125 5.87496 10.725 5.87496 9.00002C5.87496 7.27502 7.27496 5.87501 8.99996 5.87501C10.725 5.87501 12.125 7.27502 12.125 9.00002C12.125 10.725 10.725 12.125 8.99996 12.125ZM8.99996 7.12501C7.96663 7.12501 7.12496 7.96668 7.12496 9.00002C7.12496 10.0333 7.96663 10.875 8.99996 10.875C10.0333 10.875 10.875 10.0333 10.875 9.00002C10.875 7.96668 10.0333 7.12501 8.99996 7.12501Z" fill="#7E92A2"/>
<path d="M11.675 17.4917C11.5 17.4917 11.325 17.4667 11.15 17.425C10.6333 17.2833 10.2 16.9583 9.92496 16.5L9.82496 16.3333C9.33329 15.4833 8.65829 15.4833 8.16663 16.3333L8.07496 16.4917C7.79996 16.9583 7.36663 17.2917 6.84996 17.425C6.32496 17.5667 5.78329 17.4917 5.32496 17.2167L3.89163 16.3917C3.38329 16.1 3.01663 15.625 2.85829 15.05C2.70829 14.475 2.78329 13.8833 3.07496 13.375C3.31663 12.95 3.38329 12.5667 3.24163 12.325C3.09996 12.0833 2.74163 11.9417 2.24996 11.9417C1.03329 11.9417 0.041626 10.95 0.041626 9.73335V8.26668C0.041626 7.05001 1.03329 6.05835 2.24996 6.05835C2.74163 6.05835 3.09996 5.91668 3.24163 5.67502C3.38329 5.43335 3.32496 5.05002 3.07496 4.62502C2.78329 4.11668 2.70829 3.51668 2.85829 2.95001C3.00829 2.37501 3.37496 1.90002 3.89163 1.60835L5.33329 0.783348C6.27496 0.225015 7.51663 0.550015 8.08329 1.50835L8.18329 1.67501C8.67496 2.52501 9.34996 2.52501 9.84163 1.67501L9.93329 1.51668C10.5 0.550015 11.7416 0.225015 12.6916 0.791682L14.125 1.61668C14.6333 1.90835 15 2.38335 15.1583 2.95835C15.3083 3.53335 15.2333 4.12502 14.9416 4.63335C14.7 5.05835 14.6333 5.44168 14.775 5.68335C14.9166 5.92502 15.275 6.06668 15.7666 6.06668C16.9833 6.06668 17.975 7.05835 17.975 8.27502V9.74168C17.975 10.9583 16.9833 11.95 15.7666 11.95C15.275 11.95 14.9166 12.0917 14.775 12.3333C14.6333 12.575 14.6916 12.9583 14.9416 13.3833C15.2333 13.8917 15.3166 14.4917 15.1583 15.0583C15.0083 15.6333 14.6416 16.1083 14.125 16.4L12.6833 17.225C12.3666 17.4 12.025 17.4917 11.675 17.4917ZM8.99996 14.4083C9.74163 14.4083 10.4333 14.875 10.9083 15.7L11 15.8583C11.1 16.0333 11.2666 16.1583 11.4666 16.2083C11.6666 16.2583 11.8666 16.2333 12.0333 16.1333L13.475 15.3C13.6916 15.175 13.8583 14.9667 13.925 14.7167C13.9916 14.4667 13.9583 14.2083 13.8333 13.9917C13.3583 13.175 13.3 12.3333 13.6666 11.6917C14.0333 11.05 14.7916 10.6833 15.7416 10.6833C16.275 10.6833 16.7 10.2583 16.7 9.72501V8.25835C16.7 7.73335 16.275 7.30001 15.7416 7.30001C14.7916 7.30001 14.0333 6.93335 13.6666 6.29168C13.3 5.65002 13.3583 4.80835 13.8333 3.99168C13.9583 3.77501 13.9916 3.51668 13.925 3.26668C13.8583 3.01668 13.7 2.81668 13.4833 2.68335L12.0416 1.85835C11.6833 1.64168 11.2083 1.76668 10.9916 2.13335L10.9 2.29168C10.425 3.11668 9.73329 3.58335 8.99163 3.58335C8.24996 3.58335 7.55829 3.11668 7.08329 2.29168L6.99163 2.12501C6.78329 1.77501 6.31663 1.65001 5.95829 1.85835L4.51663 2.69168C4.29996 2.81668 4.13329 3.02502 4.06663 3.27502C3.99996 3.52502 4.03329 3.78335 4.15829 4.00002C4.63329 4.81668 4.69163 5.65835 4.32496 6.30002C3.95829 6.94168 3.19996 7.30835 2.24996 7.30835C1.71663 7.30835 1.29163 7.73335 1.29163 8.26668V9.73335C1.29163 10.2583 1.71663 10.6917 2.24996 10.6917C3.19996 10.6917 3.95829 11.0583 4.32496 11.7C4.69163 12.3417 4.63329 13.1833 4.15829 14C4.03329 14.2167 3.99996 14.475 4.06663 14.725C4.13329 14.975 4.29163 15.175 4.50829 15.3083L5.94996 16.1333C6.12496 16.2417 6.33329 16.2667 6.52496 16.2167C6.72496 16.1667 6.89163 16.0333 6.99996 15.8583L7.09163 15.7C7.56663 14.8833 8.25829 14.4083 8.99996 14.4083Z" fill="#7E92A2"/>
</g>
</g>
</svg>
