<svg width="16" height="14" viewBox="0 0 16 14" fill="none" xmlns="http://www.w3.org/2000/svg">
<g id="vuesax/bold/task">
<g id="Vector">
<path d="M14.6666 13.0501H7.10824C6.73324 13.0501 6.4249 12.7417 6.4249 12.3667C6.4249 11.9917 6.73324 11.6834 7.10824 11.6834H14.6666C15.0416 11.6834 15.3499 11.9917 15.3499 12.3667C15.3499 12.7501 15.0416 13.0501 14.6666 13.0501Z" fill="#7E92A2"/>
<path d="M14.6666 7.80841H7.10824C6.73324 7.80841 6.4249 7.50008 6.4249 7.12508C6.4249 6.75008 6.73324 6.44174 7.10824 6.44174H14.6666C15.0416 6.44174 15.3499 6.75008 15.3499 7.12508C15.3499 7.50008 15.0416 7.80841 14.6666 7.80841Z" fill="#7E92A2"/>
<path d="M14.6666 2.55841H7.10824C6.73324 2.55841 6.4249 2.25008 6.4249 1.87508C6.4249 1.50008 6.73324 1.19174 7.10824 1.19174H14.6666C15.0416 1.19174 15.3499 1.50008 15.3499 1.87508C15.3499 2.25008 15.0416 2.55841 14.6666 2.55841Z" fill="#7E92A2"/>
<path d="M2.09157 3.69174C1.90824 3.69174 1.73324 3.61674 1.60824 3.49174L0.849902 2.73341C0.583236 2.46674 0.583236 2.03341 0.849902 1.76674C1.11657 1.50008 1.5499 1.50008 1.81657 1.76674L2.09157 2.04174L3.8749 0.258411C4.14157 -0.00825602 4.5749 -0.00825602 4.84157 0.258411C5.10824 0.525077 5.10824 0.958411 4.84157 1.22508L2.5749 3.49174C2.44157 3.61674 2.2749 3.69174 2.09157 3.69174Z" fill="#7E92A2"/>
<path d="M2.09157 8.94174C1.91657 8.94174 1.74157 8.87508 1.60824 8.74174L0.849902 7.98341C0.583236 7.71674 0.583236 7.28341 0.849902 7.01674C1.11657 6.75008 1.5499 6.75008 1.81657 7.01674L2.09157 7.29174L3.8749 5.50841C4.14157 5.24174 4.5749 5.24174 4.84157 5.50841C5.10824 5.77508 5.10824 6.20841 4.84157 6.47508L2.5749 8.74174C2.44157 8.87508 2.26657 8.94174 2.09157 8.94174Z" fill="#7E92A2"/>
<path d="M2.09157 13.9417C1.91657 13.9417 1.74157 13.8751 1.60824 13.7417L0.849902 12.9834C0.583236 12.7167 0.583236 12.2834 0.849902 12.0167C1.11657 11.7501 1.5499 11.7501 1.81657 12.0167L2.09157 12.2917L3.8749 10.5084C4.14157 10.2417 4.5749 10.2417 4.84157 10.5084C5.10824 10.7751 5.10824 11.2084 4.84157 11.4751L2.5749 13.7417C2.44157 13.8751 2.26657 13.9417 2.09157 13.9417Z" fill="#7E92A2"/>
</g>
</g>
</svg>
